# .PCD v0.7 - Point Cloud Data file format
VERSION 0.7
FIELDS x y z
SIZE 4 4 4
TYPE F F F
COUNT 1 1 1
WIDTH 410
HEIGHT 1
VIEWPOINT 0 0 0 1 0 0 0
POINTS 410
DATA ascii
-9.0000 -14.0000 0.0500
-9.0000 -12.0000 0.0500
-9.0000 -10.0000 0.0500
-9.0000 -8.0000 0.0500
-9.0000 -6.0000 0.0500
-9.0000 -4.0000 0.0500
-9.0000 -2.0000 0.0500
-9.0000 0.0000 0.0500
-9.0000 2.0000 0.0500
-9.0000 4.0000 0.0500
-9.0000 6.0000 0.0500
-9.0000 8.0000 0.0500
-9.0000 10.0000 0.0500
-9.0000 12.0000 0.0500
-9.0000 14.0000 0.0500
-7.0000 -14.0000 0.0500
-7.0000 -12.0000 0.0500
-7.0000 -10.0000 0.0500
-7.0000 -8.0000 0.0500
-7.0000 -6.0000 0.0500
-7.0000 -4.0000 0.0500
-7.0000 -2.0000 0.0500
-7.0000 0.0000 0.0500
-7.0000 2.0000 0.0500
-7.0000 4.0000 0.0500
-7.0000 6.0000 0.0500
-7.0000 8.0000 0.0500
-7.0000 10.0000 0.0500
-7.0000 12.0000 0.0500
-7.0000 14.0000 0.0500
-5.0000 -14.0000 0.0500
-5.0000 -12.0000 0.0500
-5.0000 -10.0000 0.0500
-5.0000 -8.0000 0.0500
-5.0000 -6.0000 0.0500
-5.0000 -4.0000 0.0500
-5.0000 -2.0000 0.0500
-5.0000 0.0000 0.0500
-5.0000 2.0000 0.0500
-5.0000 4.0000 0.0500
-5.0000 6.0000 0.0500
-5.0000 8.0000 0.0500
-5.0000 10.0000 0.0500
-5.0000 12.0000 0.0500
-5.0000 14.0000 0.0500
-3.0000 -14.0000 0.0500
-3.0000 -12.0000 0.0500
-3.0000 -10.0000 0.0500
-3.0000 -8.0000 0.0500
-3.0000 -6.0000 0.0500
-3.0000 -4.0000 0.0500
-3.0000 -2.0000 0.0500
-3.0000 0.0000 0.0500
-3.0000 2.0000 0.0500
-3.0000 4.0000 0.0500
-3.0000 6.0000 0.0500
-3.0000 8.0000 0.0500
-3.0000 10.0000 0.0500
-3.0000 12.0000 0.0500
-3.0000 14.0000 0.0500
-1.0000 -14.0000 0.0500
-1.0000 -12.0000 0.0500
-1.0000 -10.0000 0.0500
-1.0000 -8.0000 0.0500
-1.0000 -6.0000 0.0500
-1.0000 -4.0000 0.0500
-1.0000 -2.0000 0.0500
-1.0000 0.0000 0.0500
-1.0000 2.0000 0.0500
-1.0000 4.0000 0.0500
-1.0000 6.0000 0.0500
-1.0000 8.0000 0.0500
-1.0000 10.0000 0.0500
-1.0000 12.0000 0.0500
-1.0000 14.0000 0.0500
1.0000 -14.0000 0.0500
1.0000 -12.0000 0.0500
1.0000 -10.0000 0.0500
1.0000 -8.0000 0.0500
1.0000 -6.0000 0.0500
1.0000 -4.0000 0.0500
1.0000 -2.0000 0.0500
1.0000 0.0000 0.0500
1.0000 2.0000 0.0500
1.0000 4.0000 0.0500
1.0000 6.0000 0.0500
1.0000 8.0000 0.0500
1.0000 10.0000 0.0500
1.0000 12.0000 0.0500
1.0000 14.0000 0.0500
3.0000 -14.0000 0.0500
3.0000 -12.0000 0.0500
3.0000 -10.0000 0.0500
3.0000 -8.0000 0.0500
3.0000 -6.0000 0.0500
3.0000 -4.0000 0.0500
3.0000 -2.0000 0.0500
3.0000 0.0000 0.0500
3.0000 2.0000 0.0500
3.0000 4.0000 0.0500
3.0000 6.0000 0.0500
3.0000 8.0000 0.0500
3.0000 10.0000 0.0500
3.0000 12.0000 0.0500
3.0000 14.0000 0.0500
5.0000 -14.0000 0.0500
5.0000 -12.0000 0.0500
5.0000 -10.0000 0.0500
5.0000 -8.0000 0.0500
5.0000 -6.0000 0.0500
5.0000 -4.0000 0.0500
5.0000 -2.0000 0.0500
5.0000 0.0000 0.0500
5.0000 2.0000 0.0500
5.0000 4.0000 0.0500
5.0000 6.0000 0.0500
5.0000 8.0000 0.0500
5.0000 10.0000 0.0500
5.0000 12.0000 0.0500
5.0000 14.0000 0.0500
7.0000 -14.0000 0.0500
7.0000 -12.0000 0.0500
7.0000 -10.0000 0.0500
7.0000 -8.0000 0.0500
7.0000 -6.0000 0.0500
7.0000 -4.0000 0.0500
7.0000 -2.0000 0.0500
7.0000 0.0000 0.0500
7.0000 2.0000 0.0500
7.0000 4.0000 0.0500
7.0000 6.0000 0.0500
7.0000 8.0000 0.0500
7.0000 10.0000 0.0500
7.0000 12.0000 0.0500
7.0000 14.0000 0.0500
9.0000 -14.0000 0.0500
9.0000 -12.0000 0.0500
9.0000 -10.0000 0.0500
9.0000 -8.0000 0.0500
9.0000 -6.0000 0.0500
9.0000 -4.0000 0.0500
9.0000 -2.0000 0.0500
9.0000 0.0000 0.0500
9.0000 2.0000 0.0500
9.0000 4.0000 0.0500
9.0000 6.0000 0.0500
9.0000 8.0000 0.0500
9.0000 10.0000 0.0500
9.0000 12.0000 0.0500
9.0000 14.0000 0.0500
11.0000 -14.0000 0.0500
11.0000 -12.0000 0.0500
11.0000 -10.0000 0.0500
11.0000 -8.0000 0.0500
11.0000 -6.0000 0.0500
11.0000 -4.0000 0.0500
11.0000 -2.0000 0.0500
11.0000 0.0000 0.0500
11.0000 2.0000 0.0500
11.0000 4.0000 0.0500
11.0000 6.0000 0.0500
11.0000 8.0000 0.0500
11.0000 10.0000 0.0500
11.0000 12.0000 0.0500
11.0000 14.0000 0.0500
13.0000 -14.0000 0.0500
13.0000 -12.0000 0.0500
13.0000 -10.0000 0.0500
13.0000 -8.0000 0.0500
13.0000 -6.0000 0.0500
13.0000 -4.0000 0.0500
13.0000 -2.0000 0.0500
13.0000 0.0000 0.0500
13.0000 2.0000 0.0500
13.0000 4.0000 0.0500
13.0000 6.0000 0.0500
13.0000 8.0000 0.0500
13.0000 10.0000 0.0500
13.0000 12.0000 0.0500
13.0000 14.0000 0.0500
15.0000 -14.0000 0.0500
15.0000 -12.0000 0.0500
15.0000 -10.0000 0.0500
15.0000 -8.0000 0.0500
15.0000 -6.0000 0.0500
15.0000 -4.0000 0.0500
15.0000 -2.0000 0.0500
15.0000 0.0000 0.0500
15.0000 2.0000 0.0500
15.0000 4.0000 0.0500
15.0000 6.0000 0.0500
15.0000 8.0000 0.0500
15.0000 10.0000 0.0500
15.0000 12.0000 0.0500
15.0000 14.0000 0.0500
17.0000 -14.0000 0.0500
17.0000 -12.0000 0.0500
17.0000 -10.0000 0.0500
17.0000 -8.0000 0.0500
17.0000 -6.0000 0.0500
17.0000 -4.0000 0.0500
17.0000 -2.0000 0.0500
17.0000 0.0000 0.0500
17.0000 2.0000 0.0500
17.0000 4.0000 0.0500
17.0000 6.0000 0.0500
17.0000 8.0000 0.0500
17.0000 10.0000 0.0500
17.0000 12.0000 0.0500
17.0000 14.0000 0.0500
-10.0000 -15.0000 0.5000
-10.0000 -14.7500 0.5000
-10.0000 -14.5000 0.5000
-10.0000 -14.2500 0.5000
-10.0000 -14.0000 0.5000
-9.7500 -15.0000 0.5000
-9.7500 -14.7500 0.5000
-9.7500 -14.5000 0.5000
-9.7500 -14.2500 0.5000
-9.7500 -14.0000 0.5000
-9.5000 -15.0000 0.5000
-9.5000 -14.7500 0.5000
-9.5000 -14.5000 0.5000
-9.5000 -14.2500 0.5000
-9.5000 -14.0000 0.5000
-9.2500 -15.0000 0.5000
-9.2500 -14.7500 0.5000
-9.2500 -14.5000 0.5000
-9.2500 -14.2500 0.5000
-9.2500 -14.0000 0.5000
-9.0000 -15.0000 0.5000
-9.0000 -14.7500 0.5000
-9.0000 -14.5000 0.5000
-9.0000 -14.2500 0.5000
-9.0000 -14.0000 0.5000
-10.0000 -15.0000 2.0000
-10.0000 -14.7500 2.0000
-10.0000 -14.5000 2.0000
-10.0000 -14.2500 2.0000
-10.0000 -14.0000 2.0000
-9.7500 -15.0000 2.0000
-9.7500 -14.7500 2.0000
-9.7500 -14.5000 2.0000
-9.7500 -14.2500 2.0000
-9.7500 -14.0000 2.0000
-9.5000 -15.0000 2.0000
-9.5000 -14.7500 2.0000
-9.5000 -14.5000 2.0000
-9.5000 -14.2500 2.0000
-9.5000 -14.0000 2.0000
-9.2500 -15.0000 2.0000
-9.2500 -14.7500 2.0000
-9.2500 -14.5000 2.0000
-9.2500 -14.2500 2.0000
-9.2500 -14.0000 2.0000
-9.0000 -15.0000 2.0000
-9.0000 -14.7500 2.0000
-9.0000 -14.5000 2.0000
-9.0000 -14.2500 2.0000
-9.0000 -14.0000 2.0000
-10.0000 14.0000 0.5000
-10.0000 14.2500 0.5000
-10.0000 14.5000 0.5000
-10.0000 14.7500 0.5000
-10.0000 15.0000 0.5000
-9.7500 14.0000 0.5000
-9.7500 14.2500 0.5000
-9.7500 14.5000 0.5000
-9.7500 14.7500 0.5000
-9.7500 15.0000 0.5000
-9.5000 14.0000 0.5000
-9.5000 14.2500 0.5000
-9.5000 14.5000 0.5000
-9.5000 14.7500 0.5000
-9.5000 15.0000 0.5000
-9.2500 14.0000 0.5000
-9.2500 14.2500 0.5000
-9.2500 14.5000 0.5000
-9.2500 14.7500 0.5000
-9.2500 15.0000 0.5000
-9.0000 14.0000 0.5000
-9.0000 14.2500 0.5000
-9.0000 14.5000 0.5000
-9.0000 14.7500 0.5000
-9.0000 15.0000 0.5000
-10.0000 14.0000 2.0000
-10.0000 14.2500 2.0000
-10.0000 14.5000 2.0000
-10.0000 14.7500 2.0000
-10.0000 15.0000 2.0000
-9.7500 14.0000 2.0000
-9.7500 14.2500 2.0000
-9.7500 14.5000 2.0000
-9.7500 14.7500 2.0000
-9.7500 15.0000 2.0000
-9.5000 14.0000 2.0000
-9.5000 14.2500 2.0000
-9.5000 14.5000 2.0000
-9.5000 14.7500 2.0000
-9.5000 15.0000 2.0000
-9.2500 14.0000 2.0000
-9.2500 14.2500 2.0000
-9.2500 14.5000 2.0000
-9.2500 14.7500 2.0000
-9.2500 15.0000 2.0000
-9.0000 14.0000 2.0000
-9.0000 14.2500 2.0000
-9.0000 14.5000 2.0000
-9.0000 14.7500 2.0000
-9.0000 15.0000 2.0000
9.0000 -15.0000 0.5000
9.0000 -14.7500 0.5000
9.0000 -14.5000 0.5000
9.0000 -14.2500 0.5000
9.0000 -14.0000 0.5000
9.2500 -15.0000 0.5000
9.2500 -14.7500 0.5000
9.2500 -14.5000 0.5000
9.2500 -14.2500 0.5000
9.2500 -14.0000 0.5000
9.5000 -15.0000 0.5000
9.5000 -14.7500 0.5000
9.5000 -14.5000 0.5000
9.5000 -14.2500 0.5000
9.5000 -14.0000 0.5000
9.7500 -15.0000 0.5000
9.7500 -14.7500 0.5000
9.7500 -14.5000 0.5000
9.7500 -14.2500 0.5000
9.7500 -14.0000 0.5000
10.0000 -15.0000 0.5000
10.0000 -14.7500 0.5000
10.0000 -14.5000 0.5000
10.0000 -14.2500 0.5000
10.0000 -14.0000 0.5000
9.0000 -15.0000 2.0000
9.0000 -14.7500 2.0000
9.0000 -14.5000 2.0000
9.0000 -14.2500 2.0000
9.0000 -14.0000 2.0000
9.2500 -15.0000 2.0000
9.2500 -14.7500 2.0000
9.2500 -14.5000 2.0000
9.2500 -14.2500 2.0000
9.2500 -14.0000 2.0000
9.5000 -15.0000 2.0000
9.5000 -14.7500 2.0000
9.5000 -14.5000 2.0000
9.5000 -14.2500 2.0000
9.5000 -14.0000 2.0000
9.7500 -15.0000 2.0000
9.7500 -14.7500 2.0000
9.7500 -14.5000 2.0000
9.7500 -14.2500 2.0000
9.7500 -14.0000 2.0000
10.0000 -15.0000 2.0000
10.0000 -14.7500 2.0000
10.0000 -14.5000 2.0000
10.0000 -14.2500 2.0000
10.0000 -14.0000 2.0000
9.0000 14.0000 0.5000
9.0000 14.2500 0.5000
9.0000 14.5000 0.5000
9.0000 14.7500 0.5000
9.0000 15.0000 0.5000
9.2500 14.0000 0.5000
9.2500 14.2500 0.5000
9.2500 14.5000 0.5000
9.2500 14.7500 0.5000
9.2500 15.0000 0.5000
9.5000 14.0000 0.5000
9.5000 14.2500 0.5000
9.5000 14.5000 0.5000
9.5000 14.7500 0.5000
9.5000 15.0000 0.5000
9.7500 14.0000 0.5000
9.7500 14.2500 0.5000
9.7500 14.5000 0.5000
9.7500 14.7500 0.5000
9.7500 15.0000 0.5000
10.0000 14.0000 0.5000
10.0000 14.2500 0.5000
10.0000 14.5000 0.5000
10.0000 14.7500 0.5000
10.0000 15.0000 0.5000
9.0000 14.0000 2.0000
9.0000 14.2500 2.0000
9.0000 14.5000 2.0000
9.0000 14.7500 2.0000
9.0000 15.0000 2.0000
9.2500 14.0000 2.0000
9.2500 14.2500 2.0000
9.2500 14.5000 2.0000
9.2500 14.7500 2.0000
9.2500 15.0000 2.0000
9.5000 14.0000 2.0000
9.5000 14.2500 2.0000
9.5000 14.5000 2.0000
9.5000 14.7500 2.0000
9.5000 15.0000 2.0000
9.7500 14.0000 2.0000
9.7500 14.2500 2.0000
9.7500 14.5000 2.0000
9.7500 14.7500 2.0000
9.7500 15.0000 2.0000
10.0000 14.0000 2.0000
10.0000 14.2500 2.0000
10.0000 14.5000 2.0000
10.0000 14.7500 2.0000
10.0000 15.0000 2.0000
