# .PCD v0.7 - Point Cloud Data file format
VERSION 0.7
FIELDS x y z
SIZE 4 4 4
TYPE F F F
COUNT 1 1 1
WIDTH 852
HEIGHT 1
VIEWPOINT 0 0 0 1 0 0 0
POINTS 852
DATA ascii
-9.8000 -14.8000 0.5000
-9.8000 -12.8000 0.5000
-9.8000 -10.8000 0.5000
-9.8000 -8.8000 0.5000
-9.8000 -6.8000 0.5000
-9.8000 -4.8000 0.5000
-9.8000 -2.8000 0.5000
-9.8000 -0.8000 0.5000
-9.8000 1.2000 0.5000
-9.8000 3.2000 0.5000
-9.8000 5.2000 0.5000
-9.8000 7.2000 0.5000
-9.8000 9.2000 0.5000
-9.8000 11.2000 0.5000
-9.8000 13.2000 0.5000
-7.8000 -14.8000 0.5000
-7.8000 -12.8000 0.5000
-7.8000 -10.8000 0.5000
-7.8000 -8.8000 0.5000
-7.8000 -6.8000 0.5000
-7.8000 -4.8000 0.5000
-7.8000 -2.8000 0.5000
-7.8000 -0.8000 0.5000
-7.8000 1.2000 0.5000
-7.8000 3.2000 0.5000
-7.8000 5.2000 0.5000
-7.8000 7.2000 0.5000
-7.8000 9.2000 0.5000
-7.8000 11.2000 0.5000
-7.8000 13.2000 0.5000
-5.8000 -14.8000 0.5000
-5.8000 -12.8000 0.5000
-5.8000 -10.8000 0.5000
-5.8000 -8.8000 0.5000
-5.8000 -6.8000 0.5000
-5.8000 -4.8000 0.5000
-5.8000 -2.8000 0.5000
-5.8000 -0.8000 0.5000
-5.8000 1.2000 0.5000
-5.8000 3.2000 0.5000
-5.8000 5.2000 0.5000
-5.8000 7.2000 0.5000
-5.8000 9.2000 0.5000
-5.8000 11.2000 0.5000
-5.8000 13.2000 0.5000
-3.8000 -14.8000 0.5000
-3.8000 -12.8000 0.5000
-3.8000 -10.8000 0.5000
-3.8000 -8.8000 0.5000
-3.8000 -6.8000 0.5000
-3.8000 -4.8000 0.5000
-3.8000 -2.8000 0.5000
-3.8000 -0.8000 0.5000
-3.8000 1.2000 0.5000
-3.8000 3.2000 0.5000
-3.8000 5.2000 0.5000
-3.8000 7.2000 0.5000
-3.8000 9.2000 0.5000
-3.8000 11.2000 0.5000
-3.8000 13.2000 0.5000
-1.8000 -14.8000 0.5000
-1.8000 -12.8000 0.5000
-1.8000 -10.8000 0.5000
-1.8000 -8.8000 0.5000
-1.8000 -6.8000 0.5000
-1.8000 -4.8000 0.5000
-1.8000 -2.8000 0.5000
-1.8000 -0.8000 0.5000
-1.8000 1.2000 0.5000
-1.8000 3.2000 0.5000
-1.8000 5.2000 0.5000
-1.8000 7.2000 0.5000
-1.8000 9.2000 0.5000
-1.8000 11.2000 0.5000
-1.8000 13.2000 0.5000
0.2000 -14.8000 0.5000
0.2000 -12.8000 0.5000
0.2000 -10.8000 0.5000
0.2000 -8.8000 0.5000
0.2000 -6.8000 0.5000
0.2000 -4.8000 0.5000
0.2000 -2.8000 0.5000
0.2000 -0.8000 0.5000
0.2000 1.2000 0.5000
0.2000 3.2000 0.5000
0.2000 5.2000 0.5000
0.2000 7.2000 0.5000
0.2000 9.2000 0.5000
0.2000 11.2000 0.5000
0.2000 13.2000 0.5000
2.2000 -14.8000 0.5000
2.2000 -12.8000 0.5000
2.2000 -10.8000 0.5000
2.2000 -8.8000 0.5000
2.2000 -6.8000 0.5000
2.2000 -4.8000 0.5000
2.2000 -2.8000 0.5000
2.2000 -0.8000 0.5000
2.2000 1.2000 0.5000
2.2000 3.2000 0.5000
2.2000 5.2000 0.5000
2.2000 7.2000 0.5000
2.2000 9.2000 0.5000
2.2000 11.2000 0.5000
2.2000 13.2000 0.5000
4.2000 -14.8000 0.5000
4.2000 -12.8000 0.5000
4.2000 -10.8000 0.5000
4.2000 -8.8000 0.5000
4.2000 -6.8000 0.5000
4.2000 -4.8000 0.5000
4.2000 -2.8000 0.5000
4.2000 -0.8000 0.5000
4.2000 1.2000 0.5000
4.2000 3.2000 0.5000
4.2000 5.2000 0.5000
4.2000 7.2000 0.5000
4.2000 9.2000 0.5000
4.2000 11.2000 0.5000
4.2000 13.2000 0.5000
6.2000 -14.8000 0.5000
6.2000 -12.8000 0.5000
6.2000 -10.8000 0.5000
6.2000 -8.8000 0.5000
6.2000 -6.8000 0.5000
6.2000 -4.8000 0.5000
6.2000 -2.8000 0.5000
6.2000 -0.8000 0.5000
6.2000 1.2000 0.5000
6.2000 3.2000 0.5000
6.2000 5.2000 0.5000
6.2000 7.2000 0.5000
6.2000 9.2000 0.5000
6.2000 11.2000 0.5000
6.2000 13.2000 0.5000
8.2000 -14.8000 0.5000
8.2000 -12.8000 0.5000
8.2000 -10.8000 0.5000
8.2000 -8.8000 0.5000
8.2000 -6.8000 0.5000
8.2000 -4.8000 0.5000
8.2000 -2.8000 0.5000
8.2000 -0.8000 0.5000
8.2000 1.2000 0.5000
8.2000 3.2000 0.5000
8.2000 5.2000 0.5000
8.2000 7.2000 0.5000
8.2000 9.2000 0.5000
8.2000 11.2000 0.5000
8.2000 13.2000 0.5000
-1.5000 -1.0000 0.0000
-1.5000 -1.0000 0.5000
-1.5000 -1.0000 1.0000
-1.5000 -1.0000 1.5000
-1.5000 -1.0000 2.0000
-1.5000 -1.0000 2.5000
-1.5000 -0.7500 0.0000
-1.5000 -0.7500 0.5000
-1.5000 -0.7500 1.0000
-1.5000 -0.7500 1.5000
-1.5000 -0.7500 2.0000
-1.5000 -0.7500 2.5000
-1.5000 -0.5000 0.0000
-1.5000 -0.5000 0.5000
-1.5000 -0.5000 1.0000
-1.5000 -0.5000 1.5000
-1.5000 -0.5000 2.0000
-1.5000 -0.5000 2.5000
-1.5000 -0.2500 0.0000
-1.5000 -0.2500 0.5000
-1.5000 -0.2500 1.0000
-1.5000 -0.2500 1.5000
-1.5000 -0.2500 2.0000
-1.5000 -0.2500 2.5000
-1.5000 0.0000 0.0000
-1.5000 0.0000 0.5000
-1.5000 0.0000 1.0000
-1.5000 0.0000 1.5000
-1.5000 0.0000 2.0000
-1.5000 0.0000 2.5000
-1.5000 0.2500 0.0000
-1.5000 0.2500 0.5000
-1.5000 0.2500 1.0000
-1.5000 0.2500 1.5000
-1.5000 0.2500 2.0000
-1.5000 0.2500 2.5000
-1.5000 0.5000 0.0000
-1.5000 0.5000 0.5000
-1.5000 0.5000 1.0000
-1.5000 0.5000 1.5000
-1.5000 0.5000 2.0000
-1.5000 0.5000 2.5000
-1.5000 0.7500 0.0000
-1.5000 0.7500 0.5000
-1.5000 0.7500 1.0000
-1.5000 0.7500 1.5000
-1.5000 0.7500 2.0000
-1.5000 0.7500 2.5000
-1.5000 1.0000 0.0000
-1.5000 1.0000 0.5000
-1.5000 1.0000 1.0000
-1.5000 1.0000 1.5000
-1.5000 1.0000 2.0000
-1.5000 1.0000 2.5000
-1.2500 -1.0000 0.0000
-1.2500 -1.0000 0.5000
-1.2500 -1.0000 1.0000
-1.2500 -1.0000 1.5000
-1.2500 -1.0000 2.0000
-1.2500 -1.0000 2.5000
-1.2500 -0.7500 0.0000
-1.2500 -0.7500 0.5000
-1.2500 -0.7500 1.0000
-1.2500 -0.7500 1.5000
-1.2500 -0.7500 2.0000
-1.2500 -0.7500 2.5000
-1.2500 -0.5000 0.0000
-1.2500 -0.5000 0.5000
-1.2500 -0.5000 1.0000
-1.2500 -0.5000 1.5000
-1.2500 -0.5000 2.0000
-1.2500 -0.5000 2.5000
-1.2500 -0.2500 0.0000
-1.2500 -0.2500 0.5000
-1.2500 -0.2500 1.0000
-1.2500 -0.2500 1.5000
-1.2500 -0.2500 2.0000
-1.2500 -0.2500 2.5000
-1.2500 0.0000 0.0000
-1.2500 0.0000 0.5000
-1.2500 0.0000 1.0000
-1.2500 0.0000 1.5000
-1.2500 0.0000 2.0000
-1.2500 0.0000 2.5000
-1.2500 0.2500 0.0000
-1.2500 0.2500 0.5000
-1.2500 0.2500 1.0000
-1.2500 0.2500 1.5000
-1.2500 0.2500 2.0000
-1.2500 0.2500 2.5000
-1.2500 0.5000 0.0000
-1.2500 0.5000 0.5000
-1.2500 0.5000 1.0000
-1.2500 0.5000 1.5000
-1.2500 0.5000 2.0000
-1.2500 0.5000 2.5000
-1.2500 0.7500 0.0000
-1.2500 0.7500 0.5000
-1.2500 0.7500 1.0000
-1.2500 0.7500 1.5000
-1.2500 0.7500 2.0000
-1.2500 0.7500 2.5000
-1.2500 1.0000 0.0000
-1.2500 1.0000 0.5000
-1.2500 1.0000 1.0000
-1.2500 1.0000 1.5000
-1.2500 1.0000 2.0000
-1.2500 1.0000 2.5000
-1.0000 -1.0000 0.0000
-1.0000 -1.0000 0.5000
-1.0000 -1.0000 1.0000
-1.0000 -1.0000 1.5000
-1.0000 -1.0000 2.0000
-1.0000 -1.0000 2.5000
-1.0000 -0.7500 0.0000
-1.0000 -0.7500 0.5000
-1.0000 -0.7500 1.0000
-1.0000 -0.7500 1.5000
-1.0000 -0.7500 2.0000
-1.0000 -0.7500 2.5000
-1.0000 -0.5000 0.0000
-1.0000 -0.5000 0.5000
-1.0000 -0.5000 1.0000
-1.0000 -0.5000 1.5000
-1.0000 -0.5000 2.0000
-1.0000 -0.5000 2.5000
-1.0000 -0.2500 0.0000
-1.0000 -0.2500 0.5000
-1.0000 -0.2500 1.0000
-1.0000 -0.2500 1.5000
-1.0000 -0.2500 2.0000
-1.0000 -0.2500 2.5000
-1.0000 0.0000 0.0000
-1.0000 0.0000 0.5000
-1.0000 0.0000 1.0000
-1.0000 0.0000 1.5000
-1.0000 0.0000 2.0000
-1.0000 0.0000 2.5000
-1.0000 0.2500 0.0000
-1.0000 0.2500 0.5000
-1.0000 0.2500 1.0000
-1.0000 0.2500 1.5000
-1.0000 0.2500 2.0000
-1.0000 0.2500 2.5000
-1.0000 0.5000 0.0000
-1.0000 0.5000 0.5000
-1.0000 0.5000 1.0000
-1.0000 0.5000 1.5000
-1.0000 0.5000 2.0000
-1.0000 0.5000 2.5000
-1.0000 0.7500 0.0000
-1.0000 0.7500 0.5000
-1.0000 0.7500 1.0000
-1.0000 0.7500 1.5000
-1.0000 0.7500 2.0000
-1.0000 0.7500 2.5000
-1.0000 1.0000 0.0000
-1.0000 1.0000 0.5000
-1.0000 1.0000 1.0000
-1.0000 1.0000 1.5000
-1.0000 1.0000 2.0000
-1.0000 1.0000 2.5000
-0.7500 -1.0000 0.0000
-0.7500 -1.0000 0.5000
-0.7500 -1.0000 1.0000
-0.7500 -1.0000 1.5000
-0.7500 -1.0000 2.0000
-0.7500 -1.0000 2.5000
-0.7500 -0.7500 0.0000
-0.7500 -0.7500 0.5000
-0.7500 -0.7500 1.0000
-0.7500 -0.7500 1.5000
-0.7500 -0.7500 2.0000
-0.7500 -0.7500 2.5000
-0.7500 -0.5000 0.0000
-0.7500 -0.5000 0.5000
-0.7500 -0.5000 1.0000
-0.7500 -0.5000 1.5000
-0.7500 -0.5000 2.0000
-0.7500 -0.5000 2.5000
-0.7500 -0.2500 0.0000
-0.7500 -0.2500 0.5000
-0.7500 -0.2500 1.0000
-0.7500 -0.2500 1.5000
-0.7500 -0.2500 2.0000
-0.7500 -0.2500 2.5000
-0.7500 0.0000 0.0000
-0.7500 0.0000 0.5000
-0.7500 0.0000 1.0000
-0.7500 0.0000 1.5000
-0.7500 0.0000 2.0000
-0.7500 0.0000 2.5000
-0.7500 0.2500 0.0000
-0.7500 0.2500 0.5000
-0.7500 0.2500 1.0000
-0.7500 0.2500 1.5000
-0.7500 0.2500 2.0000
-0.7500 0.2500 2.5000
-0.7500 0.5000 0.0000
-0.7500 0.5000 0.5000
-0.7500 0.5000 1.0000
-0.7500 0.5000 1.5000
-0.7500 0.5000 2.0000
-0.7500 0.5000 2.5000
-0.7500 0.7500 0.0000
-0.7500 0.7500 0.5000
-0.7500 0.7500 1.0000
-0.7500 0.7500 1.5000
-0.7500 0.7500 2.0000
-0.7500 0.7500 2.5000
-0.7500 1.0000 0.0000
-0.7500 1.0000 0.5000
-0.7500 1.0000 1.0000
-0.7500 1.0000 1.5000
-0.7500 1.0000 2.0000
-0.7500 1.0000 2.5000
-0.5000 -1.0000 0.0000
-0.5000 -1.0000 0.5000
-0.5000 -1.0000 1.0000
-0.5000 -1.0000 1.5000
-0.5000 -1.0000 2.0000
-0.5000 -1.0000 2.5000
-0.5000 -0.7500 0.0000
-0.5000 -0.7500 0.5000
-0.5000 -0.7500 1.0000
-0.5000 -0.7500 1.5000
-0.5000 -0.7500 2.0000
-0.5000 -0.7500 2.5000
-0.5000 -0.5000 0.0000
-0.5000 -0.5000 0.5000
-0.5000 -0.5000 1.0000
-0.5000 -0.5000 1.5000
-0.5000 -0.5000 2.0000
-0.5000 -0.5000 2.5000
-0.5000 -0.2500 0.0000
-0.5000 -0.2500 0.5000
-0.5000 -0.2500 1.0000
-0.5000 -0.2500 1.5000
-0.5000 -0.2500 2.0000
-0.5000 -0.2500 2.5000
-0.5000 0.0000 0.0000
-0.5000 0.0000 0.5000
-0.5000 0.0000 1.0000
-0.5000 0.0000 1.5000
-0.5000 0.0000 2.0000
-0.5000 0.0000 2.5000
-0.5000 0.2500 0.0000
-0.5000 0.2500 0.5000
-0.5000 0.2500 1.0000
-0.5000 0.2500 1.5000
-0.5000 0.2500 2.0000
-0.5000 0.2500 2.5000
-0.5000 0.5000 0.0000
-0.5000 0.5000 0.5000
-0.5000 0.5000 1.0000
-0.5000 0.5000 1.5000
-0.5000 0.5000 2.0000
-0.5000 0.5000 2.5000
-0.5000 0.7500 0.0000
-0.5000 0.7500 0.5000
-0.5000 0.7500 1.0000
-0.5000 0.7500 1.5000
-0.5000 0.7500 2.0000
-0.5000 0.7500 2.5000
-0.5000 1.0000 0.0000
-0.5000 1.0000 0.5000
-0.5000 1.0000 1.0000
-0.5000 1.0000 1.5000
-0.5000 1.0000 2.0000
-0.5000 1.0000 2.5000
-0.2500 -1.0000 0.0000
-0.2500 -1.0000 0.5000
-0.2500 -1.0000 1.0000
-0.2500 -1.0000 1.5000
-0.2500 -1.0000 2.0000
-0.2500 -1.0000 2.5000
-0.2500 -0.7500 0.0000
-0.2500 -0.7500 0.5000
-0.2500 -0.7500 1.0000
-0.2500 -0.7500 1.5000
-0.2500 -0.7500 2.0000
-0.2500 -0.7500 2.5000
-0.2500 -0.5000 0.0000
-0.2500 -0.5000 0.5000
-0.2500 -0.5000 1.0000
-0.2500 -0.5000 1.5000
-0.2500 -0.5000 2.0000
-0.2500 -0.5000 2.5000
-0.2500 -0.2500 0.0000
-0.2500 -0.2500 0.5000
-0.2500 -0.2500 1.0000
-0.2500 -0.2500 1.5000
-0.2500 -0.2500 2.0000
-0.2500 -0.2500 2.5000
-0.2500 0.0000 0.0000
-0.2500 0.0000 0.5000
-0.2500 0.0000 1.0000
-0.2500 0.0000 1.5000
-0.2500 0.0000 2.0000
-0.2500 0.0000 2.5000
-0.2500 0.2500 0.0000
-0.2500 0.2500 0.5000
-0.2500 0.2500 1.0000
-0.2500 0.2500 1.5000
-0.2500 0.2500 2.0000
-0.2500 0.2500 2.5000
-0.2500 0.5000 0.0000
-0.2500 0.5000 0.5000
-0.2500 0.5000 1.0000
-0.2500 0.5000 1.5000
-0.2500 0.5000 2.0000
-0.2500 0.5000 2.5000
-0.2500 0.7500 0.0000
-0.2500 0.7500 0.5000
-0.2500 0.7500 1.0000
-0.2500 0.7500 1.5000
-0.2500 0.7500 2.0000
-0.2500 0.7500 2.5000
-0.2500 1.0000 0.0000
-0.2500 1.0000 0.5000
-0.2500 1.0000 1.0000
-0.2500 1.0000 1.5000
-0.2500 1.0000 2.0000
-0.2500 1.0000 2.5000
0.0000 -1.0000 0.0000
0.0000 -1.0000 0.5000
0.0000 -1.0000 1.0000
0.0000 -1.0000 1.5000
0.0000 -1.0000 2.0000
0.0000 -1.0000 2.5000
0.0000 -0.7500 0.0000
0.0000 -0.7500 0.5000
0.0000 -0.7500 1.0000
0.0000 -0.7500 1.5000
0.0000 -0.7500 2.0000
0.0000 -0.7500 2.5000
0.0000 -0.5000 0.0000
0.0000 -0.5000 0.5000
0.0000 -0.5000 1.0000
0.0000 -0.5000 1.5000
0.0000 -0.5000 2.0000
0.0000 -0.5000 2.5000
0.0000 -0.2500 0.0000
0.0000 -0.2500 0.5000
0.0000 -0.2500 1.0000
0.0000 -0.2500 1.5000
0.0000 -0.2500 2.0000
0.0000 -0.2500 2.5000
0.0000 0.0000 0.0000
0.0000 0.0000 0.5000
0.0000 0.0000 1.0000
0.0000 0.0000 1.5000
0.0000 0.0000 2.0000
0.0000 0.0000 2.5000
0.0000 0.2500 0.0000
0.0000 0.2500 0.5000
0.0000 0.2500 1.0000
0.0000 0.2500 1.5000
0.0000 0.2500 2.0000
0.0000 0.2500 2.5000
0.0000 0.5000 0.0000
0.0000 0.5000 0.5000
0.0000 0.5000 1.0000
0.0000 0.5000 1.5000
0.0000 0.5000 2.0000
0.0000 0.5000 2.5000
0.0000 0.7500 0.0000
0.0000 0.7500 0.5000
0.0000 0.7500 1.0000
0.0000 0.7500 1.5000
0.0000 0.7500 2.0000
0.0000 0.7500 2.5000
0.0000 1.0000 0.0000
0.0000 1.0000 0.5000
0.0000 1.0000 1.0000
0.0000 1.0000 1.5000
0.0000 1.0000 2.0000
0.0000 1.0000 2.5000
0.2500 -1.0000 0.0000
0.2500 -1.0000 0.5000
0.2500 -1.0000 1.0000
0.2500 -1.0000 1.5000
0.2500 -1.0000 2.0000
0.2500 -1.0000 2.5000
0.2500 -0.7500 0.0000
0.2500 -0.7500 0.5000
0.2500 -0.7500 1.0000
0.2500 -0.7500 1.5000
0.2500 -0.7500 2.0000
0.2500 -0.7500 2.5000
0.2500 -0.5000 0.0000
0.2500 -0.5000 0.5000
0.2500 -0.5000 1.0000
0.2500 -0.5000 1.5000
0.2500 -0.5000 2.0000
0.2500 -0.5000 2.5000
0.2500 -0.2500 0.0000
0.2500 -0.2500 0.5000
0.2500 -0.2500 1.0000
0.2500 -0.2500 1.5000
0.2500 -0.2500 2.0000
0.2500 -0.2500 2.5000
0.2500 0.0000 0.0000
0.2500 0.0000 0.5000
0.2500 0.0000 1.0000
0.2500 0.0000 1.5000
0.2500 0.0000 2.0000
0.2500 0.0000 2.5000
0.2500 0.2500 0.0000
0.2500 0.2500 0.5000
0.2500 0.2500 1.0000
0.2500 0.2500 1.5000
0.2500 0.2500 2.0000
0.2500 0.2500 2.5000
0.2500 0.5000 0.0000
0.2500 0.5000 0.5000
0.2500 0.5000 1.0000
0.2500 0.5000 1.5000
0.2500 0.5000 2.0000
0.2500 0.5000 2.5000
0.2500 0.7500 0.0000
0.2500 0.7500 0.5000
0.2500 0.7500 1.0000
0.2500 0.7500 1.5000
0.2500 0.7500 2.0000
0.2500 0.7500 2.5000
0.2500 1.0000 0.0000
0.2500 1.0000 0.5000
0.2500 1.0000 1.0000
0.2500 1.0000 1.5000
0.2500 1.0000 2.0000
0.2500 1.0000 2.5000
0.5000 -1.0000 0.0000
0.5000 -1.0000 0.5000
0.5000 -1.0000 1.0000
0.5000 -1.0000 1.5000
0.5000 -1.0000 2.0000
0.5000 -1.0000 2.5000
0.5000 -0.7500 0.0000
0.5000 -0.7500 0.5000
0.5000 -0.7500 1.0000
0.5000 -0.7500 1.5000
0.5000 -0.7500 2.0000
0.5000 -0.7500 2.5000
0.5000 -0.5000 0.0000
0.5000 -0.5000 0.5000
0.5000 -0.5000 1.0000
0.5000 -0.5000 1.5000
0.5000 -0.5000 2.0000
0.5000 -0.5000 2.5000
0.5000 -0.2500 0.0000
0.5000 -0.2500 0.5000
0.5000 -0.2500 1.0000
0.5000 -0.2500 1.5000
0.5000 -0.2500 2.0000
0.5000 -0.2500 2.5000
0.5000 0.0000 0.0000
0.5000 0.0000 0.5000
0.5000 0.0000 1.0000
0.5000 0.0000 1.5000
0.5000 0.0000 2.0000
0.5000 0.0000 2.5000
0.5000 0.2500 0.0000
0.5000 0.2500 0.5000
0.5000 0.2500 1.0000
0.5000 0.2500 1.5000
0.5000 0.2500 2.0000
0.5000 0.2500 2.5000
0.5000 0.5000 0.0000
0.5000 0.5000 0.5000
0.5000 0.5000 1.0000
0.5000 0.5000 1.5000
0.5000 0.5000 2.0000
0.5000 0.5000 2.5000
0.5000 0.7500 0.0000
0.5000 0.7500 0.5000
0.5000 0.7500 1.0000
0.5000 0.7500 1.5000
0.5000 0.7500 2.0000
0.5000 0.7500 2.5000
0.5000 1.0000 0.0000
0.5000 1.0000 0.5000
0.5000 1.0000 1.0000
0.5000 1.0000 1.5000
0.5000 1.0000 2.0000
0.5000 1.0000 2.5000
0.7500 -1.0000 0.0000
0.7500 -1.0000 0.5000
0.7500 -1.0000 1.0000
0.7500 -1.0000 1.5000
0.7500 -1.0000 2.0000
0.7500 -1.0000 2.5000
0.7500 -0.7500 0.0000
0.7500 -0.7500 0.5000
0.7500 -0.7500 1.0000
0.7500 -0.7500 1.5000
0.7500 -0.7500 2.0000
0.7500 -0.7500 2.5000
0.7500 -0.5000 0.0000
0.7500 -0.5000 0.5000
0.7500 -0.5000 1.0000
0.7500 -0.5000 1.5000
0.7500 -0.5000 2.0000
0.7500 -0.5000 2.5000
0.7500 -0.2500 0.0000
0.7500 -0.2500 0.5000
0.7500 -0.2500 1.0000
0.7500 -0.2500 1.5000
0.7500 -0.2500 2.0000
0.7500 -0.2500 2.5000
0.7500 0.0000 0.0000
0.7500 0.0000 0.5000
0.7500 0.0000 1.0000
0.7500 0.0000 1.5000
0.7500 0.0000 2.0000
0.7500 0.0000 2.5000
0.7500 0.2500 0.0000
0.7500 0.2500 0.5000
0.7500 0.2500 1.0000
0.7500 0.2500 1.5000
0.7500 0.2500 2.0000
0.7500 0.2500 2.5000
0.7500 0.5000 0.0000
0.7500 0.5000 0.5000
0.7500 0.5000 1.0000
0.7500 0.5000 1.5000
0.7500 0.5000 2.0000
0.7500 0.5000 2.5000
0.7500 0.7500 0.0000
0.7500 0.7500 0.5000
0.7500 0.7500 1.0000
0.7500 0.7500 1.5000
0.7500 0.7500 2.0000
0.7500 0.7500 2.5000
0.7500 1.0000 0.0000
0.7500 1.0000 0.5000
0.7500 1.0000 1.0000
0.7500 1.0000 1.5000
0.7500 1.0000 2.0000
0.7500 1.0000 2.5000
1.0000 -1.0000 0.0000
1.0000 -1.0000 0.5000
1.0000 -1.0000 1.0000
1.0000 -1.0000 1.5000
1.0000 -1.0000 2.0000
1.0000 -1.0000 2.5000
1.0000 -0.7500 0.0000
1.0000 -0.7500 0.5000
1.0000 -0.7500 1.0000
1.0000 -0.7500 1.5000
1.0000 -0.7500 2.0000
1.0000 -0.7500 2.5000
1.0000 -0.5000 0.0000
1.0000 -0.5000 0.5000
1.0000 -0.5000 1.0000
1.0000 -0.5000 1.5000
1.0000 -0.5000 2.0000
1.0000 -0.5000 2.5000
1.0000 -0.2500 0.0000
1.0000 -0.2500 0.5000
1.0000 -0.2500 1.0000
1.0000 -0.2500 1.5000
1.0000 -0.2500 2.0000
1.0000 -0.2500 2.5000
1.0000 0.0000 0.0000
1.0000 0.0000 0.5000
1.0000 0.0000 1.0000
1.0000 0.0000 1.5000
1.0000 0.0000 2.0000
1.0000 0.0000 2.5000
1.0000 0.2500 0.0000
1.0000 0.2500 0.5000
1.0000 0.2500 1.0000
1.0000 0.2500 1.5000
1.0000 0.2500 2.0000
1.0000 0.2500 2.5000
1.0000 0.5000 0.0000
1.0000 0.5000 0.5000
1.0000 0.5000 1.0000
1.0000 0.5000 1.5000
1.0000 0.5000 2.0000
1.0000 0.5000 2.5000
1.0000 0.7500 0.0000
1.0000 0.7500 0.5000
1.0000 0.7500 1.0000
1.0000 0.7500 1.5000
1.0000 0.7500 2.0000
1.0000 0.7500 2.5000
1.0000 1.0000 0.0000
1.0000 1.0000 0.5000
1.0000 1.0000 1.0000
1.0000 1.0000 1.5000
1.0000 1.0000 2.0000
1.0000 1.0000 2.5000
1.2500 -1.0000 0.0000
1.2500 -1.0000 0.5000
1.2500 -1.0000 1.0000
1.2500 -1.0000 1.5000
1.2500 -1.0000 2.0000
1.2500 -1.0000 2.5000
1.2500 -0.7500 0.0000
1.2500 -0.7500 0.5000
1.2500 -0.7500 1.0000
1.2500 -0.7500 1.5000
1.2500 -0.7500 2.0000
1.2500 -0.7500 2.5000
1.2500 -0.5000 0.0000
1.2500 -0.5000 0.5000
1.2500 -0.5000 1.0000
1.2500 -0.5000 1.5000
1.2500 -0.5000 2.0000
1.2500 -0.5000 2.5000
1.2500 -0.2500 0.0000
1.2500 -0.2500 0.5000
1.2500 -0.2500 1.0000
1.2500 -0.2500 1.5000
1.2500 -0.2500 2.0000
1.2500 -0.2500 2.5000
1.2500 0.0000 0.0000
1.2500 0.0000 0.5000
1.2500 0.0000 1.0000
1.2500 0.0000 1.5000
1.2500 0.0000 2.0000
1.2500 0.0000 2.5000
1.2500 0.2500 0.0000
1.2500 0.2500 0.5000
1.2500 0.2500 1.0000
1.2500 0.2500 1.5000
1.2500 0.2500 2.0000
1.2500 0.2500 2.5000
1.2500 0.5000 0.0000
1.2500 0.5000 0.5000
1.2500 0.5000 1.0000
1.2500 0.5000 1.5000
1.2500 0.5000 2.0000
1.2500 0.5000 2.5000
1.2500 0.7500 0.0000
1.2500 0.7500 0.5000
1.2500 0.7500 1.0000
1.2500 0.7500 1.5000
1.2500 0.7500 2.0000
1.2500 0.7500 2.5000
1.2500 1.0000 0.0000
1.2500 1.0000 0.5000
1.2500 1.0000 1.0000
1.2500 1.0000 1.5000
1.2500 1.0000 2.0000
1.2500 1.0000 2.5000
1.5000 -1.0000 0.0000
1.5000 -1.0000 0.5000
1.5000 -1.0000 1.0000
1.5000 -1.0000 1.5000
1.5000 -1.0000 2.0000
1.5000 -1.0000 2.5000
1.5000 -0.7500 0.0000
1.5000 -0.7500 0.5000
1.5000 -0.7500 1.0000
1.5000 -0.7500 1.5000
1.5000 -0.7500 2.0000
1.5000 -0.7500 2.5000
1.5000 -0.5000 0.0000
1.5000 -0.5000 0.5000
1.5000 -0.5000 1.0000
1.5000 -0.5000 1.5000
1.5000 -0.5000 2.0000
1.5000 -0.5000 2.5000
1.5000 -0.2500 0.0000
1.5000 -0.2500 0.5000
1.5000 -0.2500 1.0000
1.5000 -0.2500 1.5000
1.5000 -0.2500 2.0000
1.5000 -0.2500 2.5000
1.5000 0.0000 0.0000
1.5000 0.0000 0.5000
1.5000 0.0000 1.0000
1.5000 0.0000 1.5000
1.5000 0.0000 2.0000
1.5000 0.0000 2.5000
1.5000 0.2500 0.0000
1.5000 0.2500 0.5000
1.5000 0.2500 1.0000
1.5000 0.2500 1.5000
1.5000 0.2500 2.0000
1.5000 0.2500 2.5000
1.5000 0.5000 0.0000
1.5000 0.5000 0.5000
1.5000 0.5000 1.0000
1.5000 0.5000 1.5000
1.5000 0.5000 2.0000
1.5000 0.5000 2.5000
1.5000 0.7500 0.0000
1.5000 0.7500 0.5000
1.5000 0.7500 1.0000
1.5000 0.7500 1.5000
1.5000 0.7500 2.0000
1.5000 0.7500 2.5000
1.5000 1.0000 0.0000
1.5000 1.0000 0.5000
1.5000 1.0000 1.0000
1.5000 1.0000 1.5000
1.5000 1.0000 2.0000
1.5000 1.0000 2.5000
